<svg id="Layer_1" data-name="Layer 1" xmlns="http://www.w3.org/2000/svg" viewBox="0 0 288 288"><defs><style>.cls-1{fill:#f9f9f9;}</style></defs><title>bellox_bi</title><path class="cls-1" d="M853.26,859.71V844.89l-21.74-21.74a25.25,25.25,0,0,0-3.6,11.21Z" transform="translate(-656.34 -655.66)"/><path class="cls-1" d="M831.44,776l21.82-21.82V739.39L827.9,764.76A25.24,25.24,0,0,0,831.44,776Z" transform="translate(-656.34 -655.66)"/><path class="cls-1" d="M769.51,823.15l-21.74,21.74v14.82l25.35-25.35A25.25,25.25,0,0,0,769.51,823.15Z" transform="translate(-656.34 -655.66)"/><path class="cls-1" d="M800.51,807l9.27,9.27a48,48,0,0,1,5.6-9.22l-7.46-7.46,7.37-7.37a48,48,0,0,1-5.57-9.25l-9.21,9.21-9.21-9.21a48,48,0,0,1-5.57,9.25l7.37,7.37L785.64,807a48,48,0,0,1,5.6,9.22Z" transform="translate(-656.34 -655.66)"/><path class="cls-1" d="M747.76,739.39v14.82L769.58,776a25.25,25.25,0,0,0,3.54-11.28Z" transform="translate(-656.34 -655.66)"/><path class="cls-1" d="M747.76,878.23a41.91,41.91,0,0,0,20.29-78.58,41.91,41.91,0,0,0-20.29-78.58v10.48a31.43,31.43,0,0,1,0,62.86v10.48a31.43,31.43,0,0,1,0,62.86v10.48Z" transform="translate(-656.34 -655.66)"/><polygon class="cls-1" points="80.95 222.58 80.95 65.21 70.47 69.21 70.47 218.58 80.95 222.58"/><path class="cls-1" d="M853.26,721.08A41.91,41.91,0,0,0,833,799.66a41.91,41.91,0,0,0,20.29,78.58V867.76a31.43,31.43,0,0,1,0-62.86V794.42a31.43,31.43,0,1,1,0-62.86V721.08Z" transform="translate(-656.34 -655.66)"/><polygon class="cls-1" points="217.88 218.58 217.88 69.21 207.4 65.21 207.4 222.58 217.88 218.58"/><path class="cls-1" d="M905.81,701.64l-7.07,7.08a134,134,0,0,1,.1,181.78l7.08,7.08A144,144,0,0,0,905.81,701.64Z" transform="translate(-656.34 -655.66)"/><path class="cls-1" d="M800.34,665.66a133.51,133.51,0,0,1,90.84,35.5l7.08-7.08a144,144,0,0,0-195.82,0l7.08,7.08A133.51,133.51,0,0,1,800.34,665.66Z" transform="translate(-656.34 -655.66)"/><path class="cls-1" d="M800.34,933.66a133.52,133.52,0,0,1-90.94-35.6l-7.07,7.08a144,144,0,0,0,196,0l-7.08-7.08A133.51,133.51,0,0,1,800.34,933.66Z" transform="translate(-656.34 -655.66)"/><path class="cls-1" d="M701.94,708.71l-7.08-7.08a144,144,0,0,0-.1,195.93l7.08-7.08A134,134,0,0,1,701.94,708.71Z" transform="translate(-656.34 -655.66)"/><path class="cls-1" d="M800.51,923.38a123.27,123.27,0,0,0,83.58-32.51L877,883.8a113.72,113.72,0,0,1-153.2-.17l-7.07,7.07A123.27,123.27,0,0,0,800.51,923.38Z" transform="translate(-656.34 -655.66)"/><path class="cls-1" d="M709.3,716.08a123.71,123.71,0,0,0-.1,167.05l7.07-7.07a113.73,113.73,0,0,1,.1-152.91Z" transform="translate(-656.34 -655.66)"/><path class="cls-1" d="M891.66,883.31a123.7,123.7,0,0,0-.1-167.42L884.49,723a113.72,113.72,0,0,1,.1,153.27Z" transform="translate(-656.34 -655.66)"/><path class="cls-1" d="M884,708.34a123.7,123.7,0,0,0-167.13.17l7.07,7.07a113.72,113.72,0,0,1,153-.17Z" transform="translate(-656.34 -655.66)"/></svg>