<svg id="Layer_1" data-name="Layer 1" xmlns="http://www.w3.org/2000/svg" viewBox="0 0 300 210"><defs><style>.cls-1{fill:#303036;}</style></defs><title>mail</title><path class="cls-1" d="M1434.93,909.91l-81.19,56.83,81.63,109.56v-162A22,22,0,0,0,1434.93,909.91Z" transform="translate(-1135.38 -891.49)"/><path class="cls-1" d="M1135.83,909.91a22,22,0,0,0-.45,4.4v162L1217,966.74Z" transform="translate(-1135.38 -891.49)"/><path class="cls-1" d="M1331.31,982.45a80.64,80.64,0,0,1-91.85,0l-10.11-7.08-88.11,118.25a24.3,24.3,0,0,0,18,7.86H1411.5a24.3,24.3,0,0,0,18-7.86l-88.11-118.25Z" transform="translate(-1135.38 -891.49)"/><path class="cls-1" d="M1238.22,963.48l10.27,7.19q2.06,1.44,4.21,2.7t4.37,2.34a63.87,63.87,0,0,0,9.13,3.6q1.17,0.36,2.35.68a65.33,65.33,0,0,0,33.06.15q1.89-.49,3.76-1.09a63.92,63.92,0,0,0,6.87-2.66q1.51-.69,3-1.46l1.56-.84a63,63,0,0,0,5.48-3.42l10.27-7.19,12.33-8.63,82.38-57.67a24.43,24.43,0,0,0-15.76-5.68H1159.27a24.43,24.43,0,0,0-15.76,5.68l82.38,57.67Z" transform="translate(-1135.38 -891.49)"/></svg>