<svg id="Layer_1" data-name="Layer 1" xmlns="http://www.w3.org/2000/svg" viewBox="0 0 169.55 158.3"><defs><style>.cls-1{fill:#303036;}</style></defs><title>top</title><polygon class="cls-1" points="14.06 70.71 84.77 0 155.49 70.71 14.06 70.71"/><path class="cls-1" d="M743.23,596.83H729.92V545.13h-17V534.06h47.4v11.08h-17v51.69Z" transform="translate(-712.88 -439.38)"/><path class="cls-1" d="M826.05,565.35q0,15.59-7.73,24t-22.15,8.37q-14.43,0-22.16-8.37t-7.73-24q0-15.67,7.75-23.94t22.22-8.26q14.47,0,22.13,8.33T826.05,565.35Zm-45.81,0q0,10.52,4,15.84t11.94,5.32q15.93,0,15.93-21.17t-15.84-21.21q-7.94,0-12,5.35T780.24,565.35Z" transform="translate(-712.88 -439.38)"/><path class="cls-1" d="M882.42,553.63q0,10.13-6.33,15.5t-18,5.37h-5.71v22.33H839.06V534.06h20q11.42,0,17.37,4.92T882.42,553.63Zm-30.05,10h4.38q6.14,0,9.19-2.43a8.49,8.49,0,0,0,3-7.06q0-4.68-2.55-6.91t-8-2.23h-6.05v18.63Z" transform="translate(-712.88 -439.38)"/></svg>